<svg width="30" height="30" viewBox="0 0 30 30" fill="none" xmlns="http://www.w3.org/2000/svg">
<path d="M24.7257 3.93531C23.6153 5.11978 22.5789 6.15618 21.5425 7.19259C14.3617 3.56517 8.21726 5.11978 5.7743 11.2642C3.55343 16.5203 6.36653 22.5906 11.8447 24.4414C17.5449 26.3661 23.1711 23.1088 24.8738 16.6683C23.1711 16.6683 21.6165 16.6683 19.9879 16.6683C18.4333 16.6683 16.8787 16.6683 15.176 16.6683C15.176 14.9656 15.176 13.4851 15.176 11.7824C15.6942 11.7084 16.1384 11.7084 16.5825 11.7084C20.8022 11.7084 25.0959 11.7084 29.2415 11.7084C31.5364 17.4826 28.1311 25.1076 21.9126 28.2909C15.102 31.8443 6.88473 29.6974 2.51702 23.3309C-1.70264 17.0385 -0.518171 8.45109 5.33012 3.56517C11.1044 -1.32075 19.4697 -1.17269 24.7257 3.93531Z" fill="#E5E5E5"/>
</svg>
