<svg width="14" height="14" viewBox="0 0 14 14" fill="none" xmlns="http://www.w3.org/2000/svg">
<path d="M5.4951 9.03968C3.57035 9.03968 2.1638 9.03968 0.535156 9.03968C0.535156 7.92924 0.535156 6.96687 0.535156 5.7824C2.01574 5.7824 3.49632 5.7824 5.19899 5.7824C5.19899 4.07973 5.19899 2.59915 5.19899 0.896484C6.45748 0.896484 7.41986 0.896484 8.60432 0.896484C8.60432 2.37707 8.60432 3.85765 8.60432 5.56032C10.381 5.63434 11.9356 5.70837 13.5643 5.7824C13.5643 6.81881 13.5643 7.70716 13.5643 8.89162C12.0837 8.89162 10.5291 8.89162 8.75238 8.89162C8.75238 10.6683 8.75238 12.2229 8.75238 13.8516C7.56792 13.8516 6.67957 13.8516 5.4951 13.8516C5.4951 12.445 5.4951 10.8904 5.4951 9.03968Z" fill="#E5E5E5"/>
</svg>
