<svg width="23" height="22" viewBox="0 0 23 22" fill="none" xmlns="http://www.w3.org/2000/svg">
<path d="M7.6749 21.9999C5.42082 21.9999 3.24138 21.9999 1.00223 21.9999C1.00223 21.776 1.00223 21.5819 1.00223 21.373C1.00223 14.7749 1.00223 8.16197 0.987305 1.56395C0.987305 1.01162 1.15151 0.877274 1.67398 0.892201C3.4653 0.922057 5.25662 0.907129 7.04794 0.907129C7.22707 0.907129 7.42113 0.907129 7.64504 0.907129C7.64504 1.81772 7.64504 2.69845 7.64504 3.72846C7.88389 3.48962 8.01823 3.37019 8.15258 3.23585C11.0933 0.369734 16.1986 0.115963 19.214 2.68352C20.9605 4.17629 21.7218 6.16167 21.9905 8.37096C22.0801 9.13227 22.095 9.89358 22.095 10.6549C22.1099 14.2226 22.095 17.7754 22.095 21.3431C22.095 21.5372 22.095 21.7461 22.095 21.985C19.8708 21.985 17.6914 21.985 15.4224 21.985C15.4224 21.776 15.4224 21.567 15.4224 21.3431C15.4224 17.9993 15.4224 14.6704 15.4224 11.3266C15.4224 10.7445 15.3925 10.1623 15.2731 9.60996C14.87 7.56487 13.437 6.40051 11.4217 6.43036C9.49607 6.46022 8.13766 7.65443 7.77939 9.69952C7.68983 10.1772 7.65997 10.6698 7.65997 11.1475C7.64504 14.5361 7.65997 17.9396 7.65997 21.3282C7.6749 21.5372 7.6749 21.7461 7.6749 21.9999Z" fill="#E5E5E5"/>
</svg>
