<svg width="14" height="23" viewBox="0 0 14 23" fill="none" xmlns="http://www.w3.org/2000/svg">
<path d="M0 8.75332C0.141674 8.57341 0.25759 8.35008 0.437903 8.21981C1.03036 7.79796 1.79669 8.08953 1.97056 8.80294C2.12512 9.44812 2.25391 10.0995 2.38914 10.7509C2.62741 11.8737 2.85925 13.0028 3.10396 14.1256C3.42594 15.5835 4.41122 16.3527 5.9632 16.3589C7.07084 16.3651 8.17203 16.3527 9.27967 16.3651C9.93008 16.3713 10.2971 16.6567 10.4002 17.2026C10.5032 17.7919 10.0846 18.3379 9.46642 18.3441C8.03036 18.3565 6.5943 18.3937 5.15823 18.3317C3.39374 18.2572 1.75161 16.8552 1.29439 15.081C0.99816 13.9209 0.779209 12.7422 0.521619 11.576C0.354186 10.8005 0.173873 10.0313 0 9.25581C0 9.08831 0 8.92081 0 8.75332Z" fill="#E5E5E5"/>
<path d="M4.54015 0C5.04889 0.105461 5.51899 0.266754 5.9247 0.601748C6.7683 1.29655 7.02589 2.56829 6.49783 3.51123C5.9247 4.54103 4.72046 5.04972 3.61927 4.73334C2.52451 4.41696 1.86766 3.65392 1.78394 2.50625C1.71954 1.62534 2.20896 0.694802 3.22644 0.235737C3.45827 0.130275 3.71586 0.0806467 3.96701 0C4.15377 0 4.34696 0 4.54015 0Z" fill="#E5E5E5"/>
<path d="M11.3467 15.8749C11.1921 15.8749 11.0826 15.8749 10.9796 15.8749C9.33104 15.8749 7.68246 15.8811 6.02745 15.8749C4.76526 15.8687 3.91521 15.1987 3.6705 14.0076C3.24548 11.9853 2.82689 9.96289 2.40187 7.94052C1.97041 5.88713 3.88301 4.89456 5.25468 5.32261C6.13048 5.59557 6.58126 6.22833 6.76158 7.05341C7.1222 8.70977 7.46351 10.3661 7.79838 12.0225C7.85633 12.3203 7.95293 12.4319 8.2878 12.4257C9.62726 12.4133 10.9667 12.4133 12.3062 12.4567C13.2142 12.4816 13.9161 13.1888 13.9805 14.0635C13.9934 14.2124 13.9998 14.3612 13.9998 14.5101C13.9998 16.8117 13.9998 19.107 13.9998 21.4085C13.9998 21.6132 13.9998 21.8242 13.9548 22.0227C13.8131 22.6492 13.2464 23.0401 12.5831 22.9966C11.9327 22.9532 11.424 22.4755 11.3596 21.8428C11.3467 21.6939 11.3467 21.545 11.3467 21.3961C11.3467 19.6777 11.3467 17.9531 11.3467 16.2347C11.3467 16.1293 11.3467 16.0176 11.3467 15.8749Z" fill="#E5E5E5"/>
</svg>
