<svg width="17" height="17" viewBox="0 0 17 17" fill="none" xmlns="http://www.w3.org/2000/svg">
<path fill-rule="evenodd" clip-rule="evenodd" d="M15.4651 0H1.53491C0.690674 0 0 0.689941 0 1.5332V15.4668C0 16.3101 0.690674 17 1.53491 17H6H7H15.4651C16.3093 17 17 16.3101 17 15.4668V1.5332C17 0.689941 16.3093 0 15.4651 0ZM7 16.0415H11.9536C12.1448 16.0415 12.3203 15.9707 12.4551 15.854C12.6179 15.7134 12.7212 15.5059 12.7212 15.2749H12.7021V13.895C12.7021 13.4736 12.3567 13.1284 11.9346 13.1284H7V16.0415ZM6 13.1284H5.04639C4.62427 13.1284 4.27881 13.4736 4.27881 13.895V15.2749C4.27881 15.6968 4.62427 16.0415 5.04639 16.0415H6V13.1284ZM2.24487 9.88965C1.9187 9.88965 1.65015 9.62109 1.65015 9.29541V4H4.56665V9.29541C4.56665 9.43213 4.51929 9.55908 4.44019 9.66016C4.38623 9.72852 4.31763 9.78516 4.23926 9.8252C4.15869 9.86621 4.06763 9.88965 3.97168 9.88965H2.24487ZM1.65015 2.06982V3H4.56665V2.06982C4.56665 1.74414 4.29785 1.47559 3.97168 1.47559H2.24487C1.9187 1.47559 1.65015 1.74414 1.65015 2.06982ZM12.2415 9.27637V4H15.1772V9.27637C15.1772 9.62109 14.8894 9.90869 14.5439 9.90869H12.8748C12.5293 9.90869 12.2415 9.62109 12.2415 9.27637ZM12.2415 3H15.1772V2.08887C15.1772 1.91943 15.1079 1.76416 14.9963 1.6499C14.8806 1.53125 14.7197 1.45654 14.5439 1.45654H12.8748C12.5293 1.45654 12.2415 1.74414 12.2415 2.08887V3Z" fill="#E5E5E5"/>
</svg>
