<svg width="288" height="16" viewBox="0 0 288 16" fill="none" xmlns="http://www.w3.org/2000/svg">
<path d="M152.241 11.7092V12.596H153.659V13.7851L154.253 13.1603H156.4V12.0115C156.4 12.0115 159.409 11.9914 162.878 11.9712V12.9789H161.191L160.635 12.3945H160.022C159.754 12.1728 159.39 12.0317 159.006 12.0317C158.106 12.0317 157.377 12.7975 157.377 13.7448C157.377 14.692 158.106 15.4578 159.006 15.4578C159.696 15.4578 160.29 14.9943 160.52 14.3494H166.021C166.251 14.9943 166.845 15.4578 167.535 15.4578C168.436 15.4578 169.164 14.692 169.164 13.7448C169.164 13.2006 168.915 12.6968 168.532 12.3945V12.2534H168.34C168.11 12.1123 167.822 12.0317 167.535 12.0317C167.247 12.0317 166.979 12.1123 166.73 12.2534H165.983L165.427 12.9991H164.085C164.085 12.9991 164.009 12.4751 163.97 11.9914C168.493 11.9712 173.4 11.9712 173.457 12.0317C173.572 12.1526 173.457 14.7726 173.457 14.7726H176.064V12.3743H176.562V13.5634H180.587V11.8503L182.848 12.7371V13.6238H184.4L184.899 13.0998H186.106V12.0922H188.425V12.8378H187.716V14.692H201.4V12.8378H200.691V12.1728H201.898V13.5029H204.294L204.716 13.0595L205.348 13.4223V14.3091H206.556V13.2006H205.712L205.08 12.5355V12.0115H207.821L208.357 11.4472H213.532V12.9588H211.845L211.29 12.3743H210.676C210.408 12.1526 210.044 12.0115 209.66 12.0115C208.76 12.0115 208.031 12.7774 208.031 13.7246C208.031 14.6718 208.76 15.4377 209.66 15.4377C210.35 15.4377 210.945 14.9741 211.175 14.3292H216.675C216.905 14.9741 217.499 15.4377 218.189 15.4377C219.09 15.4377 219.818 14.6718 219.818 13.7246C219.818 13.1805 219.569 12.6766 219.186 12.3743V12.2332H218.994C218.764 12.0922 218.477 12.0115 218.189 12.0115C217.902 12.0115 217.633 12.0922 217.384 12.2332H216.637L216.081 12.9789H214.739C214.739 12.9789 214.605 11.9712 214.605 11.4674H220.297L221.486 12.7169H223.345V13.8052H223.9V12.6161H224.763L225.031 12.8177H225.395V11.6488H225.031L224.763 11.9511H224.686C224.686 11.9511 224.763 10.9232 224.763 11.0643V3.48654H224.207V0.886713H216.177V0.0805664H214.126V0.886713H211.654V1.91455H210.81V0.967328H207.207V0.0805664H205.157V0.967328H200.442V1.85409H198.602V0.967328H198.391V0.0805664H196.341V0.967328H189.92V0.0805664H187.869V0.967328H181.238V0.0805664H179.188V0.967328H172.345V0.0805664H170.295V0.967328H163.453V0.0805664H161.402V0.967328H153.295V3.26485H153.027V11.0442H153.583V11.7092H152.241ZM221.332 4.3733H223.019V6.81189H221.332V4.3733ZM221.332 3.60746H223.019V3.97023H221.332V3.60746ZM216.253 5.38098H218.63V7.85988H216.253V5.38098ZM210.983 5.38098H213.359V7.85988H210.983V5.38098ZM204.946 5.44144H208.357V7.63819H204.946V5.44144ZM200.844 5.44144H204.256V7.63819H200.844V5.44144ZM196.551 5.44144H199.963V7.63819H196.551V5.44144ZM192.45 5.44144H195.861V7.63819H192.45V5.44144ZM188.214 5.44144H191.626V7.63819H188.214V5.44144ZM184.113 5.44144H187.524V7.63819H184.113V5.44144ZM179.82 5.44144H183.231V7.63819H179.82V5.44144ZM175.719 5.44144H179.13V7.63819H175.719V5.44144ZM171.406 5.44144H174.818V7.63819H171.406V5.44144ZM167.305 5.44144H170.716V7.63819H167.305V5.44144ZM166.404 7.63819H162.993V5.44144H166.404V7.63819ZM158.911 5.44144H162.322V7.63819H158.911V5.44144ZM154.867 4.3733H156.553V6.81189H154.867V4.3733ZM154.867 3.60746H156.553V3.97023H154.867V3.60746Z" fill="#FFCA62"/>
<path d="M77.4194 11.7092V12.596H78.8377V13.7851L79.4318 13.1603H81.5783V12.0115C81.5783 12.0115 84.5873 11.9914 88.0562 11.9712V12.9789H86.3697L85.8139 12.3945H85.1814C84.9131 12.1728 84.549 12.0317 84.1657 12.0317C83.2649 12.0317 82.5366 12.7975 82.5366 13.7448C82.5366 14.692 83.2649 15.4578 84.1657 15.4578C84.8556 15.4578 85.4497 14.9943 85.6797 14.3494H91.1802C91.4102 14.9943 92.0043 15.4578 92.6943 15.4578C93.595 15.4578 94.3233 14.692 94.3233 13.7448C94.3233 13.2006 94.0742 12.6968 93.6909 12.3945V12.2534H93.4992C93.2692 12.1123 92.9817 12.0317 92.6943 12.0317C92.4068 12.0317 92.1385 12.1123 91.8893 12.2534H91.1419L90.5861 12.9991H89.2445C89.2445 12.9991 89.1678 12.4751 89.1295 11.9914C93.6525 11.9712 98.5589 11.9712 98.6164 12.0317C98.7314 12.1526 98.6164 14.7726 98.6164 14.7726H101.223V12.3743H101.721V13.5634H105.746V11.8503L108.007 12.7371V13.6238H109.56L110.058 13.0998H111.266V12.0922H113.585V12.8378H112.875V14.692H126.56V12.8378H125.85V12.1728H127.058V13.5029H129.453L129.875 13.0595L130.508 13.4223V14.3091H131.715V13.2006H130.872L130.239 12.5355V12.0115H132.98L133.517 11.4472H138.691V12.9588H137.005L136.449 12.3743H135.836C135.567 12.1526 135.203 12.0115 134.82 12.0115C133.919 12.0115 133.191 12.7774 133.191 13.7246C133.191 14.6718 133.919 15.4377 134.82 15.4377C135.51 15.4377 136.104 14.9741 136.334 14.3292H141.834C142.064 14.9741 142.658 15.4377 143.348 15.4377C144.249 15.4377 144.977 14.6718 144.977 13.7246C144.977 13.1805 144.728 12.6766 144.345 12.3743V12.2332H144.153C143.923 12.0922 143.636 12.0115 143.348 12.0115C143.061 12.0115 142.793 12.0922 142.543 12.2332H141.796L141.24 12.9789H139.899C139.899 12.9789 139.764 11.9712 139.764 11.4674H145.457L146.645 12.7169H148.504V13.8052H149.06V12.6161H149.922L150.19 12.8177H150.555V11.6488H150.152L149.884 11.9511H149.807C149.807 11.9511 149.884 10.9232 149.884 11.0643V3.48654H149.328V0.886713H141.298V0.0805664H139.228V0.886713H136.755V1.91455H135.912V0.967328H132.328V0.0805664H130.278V0.967328H125.563V1.85409H123.723V0.967328H123.512V0.0805664H121.462V0.967328H115.041V0.0805664H112.99V0.967328H106.359V0.0805664H104.347V0.967328H97.5048V0.0805664H95.4541V0.967328H88.6312V0.0805664H86.5805V0.967328H78.4735V3.26485H78.186V11.0442H78.7418V11.7092H77.4194ZM146.492 4.3733H148.178V6.81189H146.492V4.3733ZM146.492 3.60746H148.178V3.97023H146.492V3.60746ZM141.432 5.38098H143.808V7.85988H141.432V5.38098ZM136.142 5.38098H138.519V7.85988H136.142V5.38098ZM130.105 5.44144H133.517V7.63819H130.105V5.44144ZM126.023 5.44144H129.434V7.63819H126.023V5.44144ZM121.711 5.44144H125.122V7.63819H121.711V5.44144ZM117.609 5.44144H121.021V7.63819H117.609V5.44144ZM113.374 5.44144H116.785V7.63819H113.374V5.44144ZM109.291 5.44144H112.703V7.63819H109.291V5.44144ZM104.979 5.44144H108.391V7.63819H104.979V5.44144ZM100.878 5.44144H104.289V7.63819H100.878V5.44144ZM96.5657 5.44144H99.9771V7.63819H96.5657V5.44144ZM92.4643 5.44144H95.8757V7.63819H92.4643V5.44144ZM91.5827 7.63819H88.1712V5.44144H91.5827V7.63819ZM84.0698 5.44144H87.4813V7.63819H84.0698V5.44144ZM80.0259 4.3733H81.7125V6.81189H80.0259V4.3733ZM80.0259 3.60746H81.7125V3.97023H80.0259V3.60746Z" fill="#FFCA62"/>
<path d="M0.853638 11.7092V12.596H2.27188V13.7851L2.866 13.1603H5.01253V12.0115C5.01253 12.0115 8.02149 11.9914 11.4904 11.9712V12.9789H9.80388L9.24808 12.3945H8.63479C8.36647 12.1728 8.00233 12.0317 7.61902 12.0317C6.71825 12.0317 5.98996 12.7975 5.98996 13.7448C5.98996 14.692 6.71825 15.4578 7.61902 15.4578C8.30898 15.4578 8.9031 14.9943 9.13309 14.3494H14.6336C14.8635 14.9943 15.4577 15.4578 16.1476 15.4578C17.0484 15.4578 17.7767 14.692 17.7767 13.7448C17.7767 13.2006 17.5275 12.6968 17.1442 12.3945V12.2534H16.9526C16.7226 12.1123 16.4351 12.0317 16.1476 12.0317C15.8601 12.0317 15.5918 12.1123 15.3427 12.2534H14.5952L14.0394 12.9991H12.6979C12.6979 12.9991 12.6212 12.4751 12.5829 11.9914C17.1059 11.9712 22.0122 11.9712 22.0697 12.0317C22.1847 12.1526 22.0697 14.7726 22.0697 14.7726H24.6762V12.3743H25.1745V13.5634H29.1993V11.8503L31.4608 12.7371V13.6238H33.0132L33.5115 13.0998H34.7189V12.0922H37.0379V12.8378H36.3096V14.692H49.9937V12.8378H49.2846V12.1728H50.492V13.5029H52.8877L53.3093 13.0595L53.9418 13.4223V14.3091H55.1492V13.2006H54.3059L53.6735 12.5355V12.0115H56.4141L56.9507 11.4472H62.1254V12.9588H60.4388L59.883 12.3743H59.2698C59.0014 12.1526 58.6373 12.0115 58.254 12.0115C57.3532 12.0115 56.6249 12.7774 56.6249 13.7246C56.6249 14.6718 57.3532 15.4377 58.254 15.4377C58.9439 15.4377 59.5381 14.9741 59.7681 14.3292H65.2494C65.4793 14.9741 66.0735 15.4377 66.7634 15.4377C67.6642 15.4377 68.3925 14.6718 68.3925 13.7246C68.3925 13.1805 68.1433 12.6766 67.76 12.3743V12.2332H67.5684C67.3384 12.0922 67.0509 12.0115 66.7634 12.0115C66.4759 12.0115 66.2076 12.0922 65.9585 12.2332H65.211L64.6552 12.9789H63.3137C63.3137 12.9789 63.1795 11.9712 63.1795 11.4674H68.8716L70.0599 12.7169H71.9189V13.8052H72.4747V12.6161H73.3372L73.6055 12.8177H73.9696V11.6488H73.6055L73.3372 11.9511H73.2605C73.2605 11.9511 73.3372 10.9232 73.3372 11.0643V3.48654H72.7814V0.886713H64.7511V0.0805664H62.7004V0.886713H60.228V1.91455H59.3848V0.967328H55.7817V0.0805664H53.731V0.967328H49.0163V1.85409H47.1764V0.967328H46.9656V0.0805664H44.9149V0.967328H38.4945V0.0805664H36.4438V0.967328H29.8125V0.0805664H27.7618V0.967328H20.9198V0.0805664H18.9074V0.967328H12.0654V0.0805664H10.0147V0.967328H1.90773V3.26485H1.62025V11.0442H2.19522V11.7092H0.853638ZM69.9257 4.3733H71.6123V6.81189H69.9257V4.3733ZM69.9257 3.60746H71.6123V3.97023H69.9257V3.60746ZM64.8661 5.38098H67.2426V7.85988H64.8661V5.38098ZM59.5764 5.38098H61.9529V7.85988H59.5764V5.38098ZM53.5585 5.44144H56.9699V7.63819H53.5585V5.44144ZM49.4571 5.44144H52.8685V7.63819H49.4571V5.44144ZM45.1449 5.44144H48.5563V7.63819H45.1449V5.44144ZM41.0435 5.44144H44.4549V7.63819H41.0435V5.44144ZM36.8271 5.44144H40.2385V7.63819H36.8271V5.44144ZM32.7257 5.44144H36.1371V7.63819H32.7257V5.44144ZM28.4135 5.44144H31.8249V7.63819H28.4135V5.44144ZM24.3121 5.44144H27.7235V7.63819H24.3121V5.44144ZM19.9999 5.44144H23.4113V7.63819H19.9999V5.44144ZM15.9176 5.44144H19.3291V7.63819H15.9176V5.44144ZM15.0169 7.63819H11.6054V5.44144H15.0169V7.63819ZM7.50403 5.44144H10.9155V7.63819H7.50403V5.44144ZM3.46013 4.3733H5.14669V6.81189H3.46013V4.3733ZM3.46013 3.60746H5.14669V3.97023H3.46013V3.60746Z" fill="#FFCA62"/>
<path d="M225.875 11.7899V12.6767L226.066 12.8983L226.334 12.9185L226.584 12.7976H226.852V12.8983H227.12V12.6767H227.024V12.4953H227.58V13.0797H228.194L228.155 13.6037L227.504 13.8053V14.551H228.366L228.845 13.6642H230.723V12.9991C230.8 13.0193 230.858 13.0596 230.934 13.0797C231.183 13.1805 231.452 13.2813 231.586 13.503C231.662 13.644 231.682 13.7851 231.701 13.9665C231.72 14.0874 231.72 14.2083 231.758 14.3293C231.873 14.6316 232.027 14.6517 232.276 14.6517H232.295C232.333 14.6517 232.352 14.6517 232.391 14.6517C232.448 14.6517 232.487 14.6719 232.544 14.6719C232.602 14.6719 232.659 14.6719 232.697 14.6517C232.774 14.6114 232.889 14.5308 232.927 14.43H233.062C233.387 14.8533 233.886 15.1153 234.422 15.1153C234.978 15.1153 235.457 14.8533 235.783 14.43H237.431V14.2486H236.971C237.01 14.2285 237.048 14.1882 237.048 14.1479C237.125 13.9262 237.048 13.5433 237.048 13.3216C237.048 13.1402 237.048 12.9588 237.048 12.7774C237.048 12.7976 237.048 12.8177 237.048 12.858C237.105 12.858 237.144 12.858 237.201 12.858C237.201 13.3014 237.24 13.7247 237.259 14.168C237.431 14.168 237.604 14.0874 237.776 14.1076C237.815 14.2285 237.93 14.43 238.064 14.4703C238.236 14.5308 238.505 14.4905 238.696 14.4703C238.984 14.4502 239.252 14.43 239.539 14.4502C239.75 14.4703 239.98 14.4502 240.191 14.4502C240.21 14.3494 240.21 14.2688 240.21 14.168H240.881V12.8379C240.939 12.8379 240.996 12.8379 241.073 12.8379C241.073 13.0193 241.073 13.2007 241.073 13.382C241.073 13.6037 240.977 13.9866 241.073 14.1882C241.13 14.3494 241.379 14.3494 241.533 14.3293C241.705 14.3091 241.973 14.3293 242.146 14.2486C242.453 14.7928 243.008 15.1556 243.66 15.1556C244.637 15.1556 245.423 14.3293 245.423 13.3014C245.423 13.12 245.404 12.9588 245.347 12.7976C245.423 12.6968 245.5 12.596 245.615 12.5557C245.634 12.8379 245.596 13.12 245.596 13.4022C245.596 13.5634 245.615 13.7448 245.596 13.906C245.672 13.906 245.749 13.8456 245.807 13.8254C245.807 13.9665 245.692 14.5913 245.96 14.4099C246.094 14.3091 246.171 14.0068 246.209 13.8254C246.228 13.6843 246.266 13.5433 246.286 13.4022C246.343 13.3216 246.381 13.2208 246.401 13.12V13.0999C246.477 12.8379 246.573 12.5154 246.573 12.2333C246.573 12.0317 246.477 11.8907 246.381 11.7496C246.381 11.7496 246.381 11.7496 246.381 11.7294C246.458 11.7697 246.554 11.8302 246.592 11.8705C246.726 12.0317 246.765 12.3139 246.707 12.5557C246.669 12.6968 246.631 12.8379 246.573 12.9588C246.496 13.1603 246.42 13.382 246.401 13.644C246.401 13.7045 246.401 13.765 246.381 13.8456C246.381 14.0874 246.362 14.43 246.209 14.551C246.094 14.6316 245.807 14.5913 245.615 14.4703C245.557 14.43 245.481 14.3696 245.481 14.289L245.385 14.2688C245.366 14.3696 245.442 14.4703 245.557 14.5711C245.692 14.6517 245.883 14.7122 246.037 14.7122C246.132 14.7122 246.209 14.692 246.266 14.6517C246.477 14.5106 246.477 14.1277 246.496 13.8657C246.496 13.7851 246.496 13.7247 246.496 13.6843C246.516 13.4425 246.592 13.241 246.669 13.0193C246.707 12.8782 246.765 12.7573 246.803 12.596C246.861 12.334 246.803 12.0116 246.669 11.8302C246.611 11.7697 246.516 11.7093 246.42 11.6488C246.381 11.6287 246.305 11.5884 246.247 11.5481C246.228 11.5279 246.228 11.5077 246.228 11.4674H247.167V14.5106H248.471V14.3897H266.084V11.3062H266.294V14.3494C266.294 14.3494 266.313 12.0519 266.294 11.3062H266.927C266.869 11.3667 266.812 11.4271 266.773 11.5077C266.869 11.5279 266.965 11.5279 267.08 11.5279C267.042 11.5481 267.003 11.5884 266.965 11.6085C266.869 11.669 266.754 11.7093 266.716 11.7899C266.563 11.9914 266.505 12.2937 266.582 12.5557C266.62 12.6968 266.658 12.8379 266.716 12.979C266.793 13.2007 266.85 13.4022 266.888 13.644C266.888 13.7045 266.888 13.765 266.888 13.8254C266.888 14.1076 266.908 14.4703 267.118 14.6114C267.176 14.6517 267.253 14.6719 267.348 14.6719C267.502 14.6719 267.693 14.6114 267.828 14.5308C267.962 14.4502 268.019 14.3494 268 14.2285L267.904 14.2486C267.904 14.3293 267.828 14.3897 267.77 14.43C267.578 14.551 267.272 14.5913 267.176 14.5106C267.023 14.3897 267.003 14.0471 267.003 13.8053C267.003 13.7247 267.003 13.6642 266.984 13.6037C266.965 13.3417 266.888 13.12 266.812 12.9185C266.773 12.7976 266.716 12.6565 266.678 12.5154C266.62 12.2937 266.678 12.0116 266.793 11.8302C266.831 11.7899 266.927 11.7294 267.003 11.6891C267.003 11.6891 267.003 11.6891 267.003 11.7093C266.908 11.8504 266.812 11.9914 266.812 12.193C266.812 12.4751 266.908 12.7976 266.984 13.0596V13.0797C267.003 13.1603 267.042 13.2611 267.099 13.3619C267.118 13.503 267.157 13.644 267.176 13.7851C267.214 13.9665 267.272 14.2688 267.425 14.3696C267.674 14.551 267.578 13.9262 267.578 13.7851C267.655 13.8053 267.713 13.8657 267.789 13.8657C267.77 13.7247 267.789 13.5231 267.789 13.3619C267.789 13.0797 267.751 12.7774 267.77 12.5154C267.885 12.5557 267.981 12.6364 268.038 12.7573C268 12.9185 267.962 13.0999 267.962 13.2611C267.962 14.289 268.748 15.1153 269.725 15.1153C270.357 15.1153 270.932 14.7525 271.239 14.2083C271.392 14.289 271.68 14.2688 271.852 14.289C272.006 14.3091 272.255 14.3091 272.312 14.1479C272.389 13.9463 272.312 13.5634 272.312 13.3417C272.312 13.1603 272.312 12.979 272.312 12.7976C272.37 12.7976 272.427 12.7976 272.504 12.7976V14.1277H273.175C273.175 14.2285 273.175 14.3091 273.194 14.4099C273.424 14.4099 273.635 14.43 273.846 14.4099C274.133 14.3897 274.42 14.4099 274.689 14.43C274.861 14.4502 275.149 14.4905 275.321 14.43C275.436 14.3897 275.551 14.1882 275.609 14.0673C275.781 14.0471 275.954 14.1076 276.126 14.1277C276.145 13.6843 276.184 13.2611 276.184 12.8177C276.241 12.8177 276.28 12.8177 276.337 12.8177C276.337 12.7976 276.337 12.7774 276.337 12.7371C276.337 12.9185 276.337 13.0999 276.337 13.2813C276.337 13.503 276.241 13.906 276.337 14.1076C276.356 14.1479 276.375 14.1882 276.414 14.2083H275.954V14.3897H277.602C277.928 14.8129 278.426 15.0749 278.963 15.0749C279.499 15.0749 279.998 14.8129 280.323 14.3897H280.458C280.496 14.4905 280.611 14.5711 280.688 14.6114C280.745 14.6316 280.783 14.6316 280.841 14.6316C280.898 14.6316 280.956 14.6316 280.994 14.6114C281.033 14.6114 281.071 14.6114 281.09 14.6114H281.109C281.358 14.5913 281.512 14.5913 281.627 14.289C281.665 14.168 281.684 14.0471 281.684 13.9262C281.703 13.765 281.722 13.6037 281.799 13.4627C281.933 13.241 282.202 13.1402 282.451 13.0394C282.547 12.9991 282.642 12.9588 282.738 12.9185V13.6239H284.616L285.057 14.5106H285.958V14.3091H286.878L287.108 14.4502L287.223 14.289L286.897 14.0874L286.993 14.0471L286.476 12.858H286.552L286.686 12.717H286.955L287.108 12.8782H287.415L287.683 12.596V11.7899L287.491 11.5884H286.514L286.571 11.4876C286.571 11.4876 286.571 11.4473 286.571 11.4271C286.571 11.3667 286.571 11.2861 286.495 11.2256C286.418 11.1651 286.303 11.1651 286.188 11.1651C286.15 11.1651 286.131 11.1651 286.111 11.1651C285.977 11.145 285.862 11.1248 285.728 11.1047V11.0845H285.632C285.556 11.0644 285.479 11.0442 285.402 11.0241V10.7621C285.46 10.7621 285.517 10.7621 285.575 10.7621C285.69 10.7621 285.805 10.7419 285.843 10.7218L285.747 10.5202C285.709 10.5404 285.536 10.5404 285.402 10.5202V10.4598L285.671 10.1776H286.878L286.974 10.0768H287.165V9.93576H286.016V9.63346H286.15V9.71407H286.303V9.19007H286.15V9.311H286.016V6.73133H285.268V9.95591H284.195V9.85515H284.271V4.75627C284.271 4.75627 284.233 4.6555 284.156 4.57488C284.08 4.51442 283.984 4.47412 283.984 4.47412H282.987V4.27258H283.179V4.05089H282.911V4.11135H282.412V4.23227H282.508V4.37335H280.189V4.1315H278.771V4.35319H277.257V2.64013H278.56V2.49906H278.656V2.43859H278.886V1.16891H278.656V1.10845H278.541V0.947223H278.081V0.826301H277.985V0.705379C277.985 0.705379 278.426 0.685225 279.02 0.745686C279.614 0.806147 279.71 1.06814 279.71 1.06814C279.71 1.06814 279.71 0.423227 279.71 0.241844C279.71 0.22169 279.691 0.201537 279.672 0.22169C279.557 0.302305 279.212 0.503842 279.039 0.544149C278.905 0.564303 278.541 0.564303 278.541 0.564303H278.119C278.119 0.564303 278.177 0.483688 278.177 0.403073C278.177 0.322459 278.1 0.261998 278.1 0.261998L278.043 0.241844L278.004 0.302305H277.736L277.679 0.362766C277.679 0.362766 277.41 0.362766 277.372 0.362766C277.314 0.362766 277.161 0.322459 277.104 0.302305C277.046 0.282151 276.989 0.181383 276.989 0.181383V0.705379C276.989 0.705379 277.046 0.624764 277.123 0.564303C277.199 0.503842 277.391 0.503842 277.391 0.503842H277.583V0.584457V0.745686L277.659 0.826301V0.927069H273.405V0.826301H273.347V0.644917H273.405V0.0201537H273.136V0.665071H273.271V0.806147H273.175V0.927069H270.53H270.281V0.866608H270.357V0.745686H269.667L269.227 0.322459H266.486V0.241844H265.47V0.342612H263.784V0.76584H263.611V0.906915H263.439V0.745686H262.519L262.385 0.38292H262.174V0.282151H261.196V0.403073H260.966L260.832 0.745686H260.123V0.846454H260.2V0.947223H256.577V0.886762H255.313V0.261998H254.316L254.239 0.181383H252.304L252.227 0.261998H251.211V0.846454H249.965L249.908 0.906915H246.746C246.746 0.906915 246.477 0.866608 246.477 0.906915H246.343V0.826301H245.193V0.503842H245.289V0.362766H245.212V0.060461H244.177L244.12 0H242.184L242.108 0.0806147H241.092V0.38292H241.015V0.523995H241.073V0.826301H240.479V0.523995H240.574V0.362766H240.479V0.0806147H239.463L239.405 0.0201537H237.45L237.393 0.0806147H236.358V0.38292H236.281V0.523995H236.377V0.826301H235.745V0.544149H235.841V0.362766H235.745V0.0806147H234.767L234.691 0H232.717L232.678 0.060461H231.605V0.806147H230.129V0.927069H229.995V0.725532H230.091V0.665071H229.631V0.60461H229.363V0.806147H229.516V1.00768C229.516 1.00768 229.458 0.967376 229.382 1.00768C229.286 1.04799 229.248 1.16891 229.248 1.16891V1.93475H228.462L228.404 1.99521V2.05567H228.213V3.32536H228.404L228.443 3.36566H229.018V3.22459H229.228V9.85515H229.286V9.93576H228.443V9.83499H228.347V9.73422H228.232V6.65071H227.408V9.27069H227.274V9.19007H227.178V9.73422H227.274V9.6133H227.408V9.97607H226.354L226.373 10.097H226.545L226.66 10.2179H228.117V11.0845H227.81V11.2659H227.983V11.2054H228.117L228.098 11.3062L227.887 11.4271L227.791 11.5481H227.504V11.8101L227.542 11.8504V11.931H226.948L226.679 11.6488H225.97L225.875 11.7899ZM228.002 9.06915H227.619V6.8724H228.002V9.06915ZM285.613 9.79468H285.939V9.95591H285.613V9.79468ZM285.613 6.95302H285.939V9.12961H285.613V6.95302ZM286.571 12.7774L286.456 12.4953H286.571V12.7774ZM285.881 13.7448L285.996 13.0394V12.5154H286.226L286.916 14.0874H286.092V13.7247H285.881V13.7448ZM285.517 11.2457H285.594C285.805 11.3062 286.016 11.3465 286.226 11.3868C286.265 11.3868 286.303 11.3868 286.341 11.3868C286.399 11.3868 286.495 11.3868 286.514 11.407C286.514 11.407 286.514 11.4271 286.514 11.4473C286.514 11.5077 286.533 11.5884 286.571 11.6488L286.495 11.7093V11.9511H285.996V11.7697H286.111V11.5884H285.766L285.517 11.3264V11.2457ZM280.688 14.43H281.358V14.3696C281.531 14.2688 281.607 13.9665 281.646 13.7851C281.722 13.4828 281.78 13.1805 281.818 12.8782C281.876 12.5154 281.933 11.8705 281.435 11.8907C281.339 11.8907 281.263 11.9108 281.167 11.9511C281.071 11.9914 281.013 12.1124 280.918 12.1325C280.783 12.1728 280.573 12.1124 280.381 12.0317C280.285 11.931 280.189 11.8302 280.093 11.7496C280.055 11.6891 280.036 11.6287 279.998 11.5884C279.94 11.5481 279.844 11.5481 279.768 11.5481C279.557 11.4473 279.308 11.3868 279.058 11.3868C279.039 11.3868 279.001 11.3868 278.982 11.3868C278.905 11.3868 278.828 11.3868 278.752 11.3868C278.599 11.3868 278.426 11.3465 278.273 11.3667C278.119 11.407 278.062 11.5481 277.909 11.6085C277.736 11.669 277.64 11.6287 277.487 11.5682C277.468 11.4876 277.487 11.3868 277.487 11.2861H282.01L282.872 12.193V12.7976C282.777 12.858 282.662 12.8983 282.547 12.9387C282.278 13.0394 282.01 13.1402 281.837 13.4022C281.742 13.5634 281.722 13.7448 281.703 13.906C281.684 14.027 281.684 14.1479 281.646 14.2486C281.569 14.4905 281.473 14.4905 281.224 14.5106H281.205C281.167 14.5106 281.128 14.5106 281.09 14.5308C280.994 14.551 280.898 14.551 280.822 14.5308C280.783 14.5106 280.707 14.4703 280.688 14.43ZM280.573 14.2285C280.745 13.9463 280.841 13.6037 280.841 13.241C280.841 13.0193 280.803 12.7976 280.726 12.596C280.783 12.5557 280.86 12.5154 280.937 12.4751C280.956 12.7573 280.918 13.0394 280.918 13.3216C280.918 13.4828 280.937 13.6642 280.918 13.8254C281.013 13.8254 281.109 13.765 281.186 13.7448C281.186 13.8254 281.148 14.0471 281.167 14.1882H280.573V14.2285ZM279.883 14.2285C279.921 14.2083 279.959 14.1882 279.978 14.168C280.189 13.9665 280.247 13.503 280.343 13.2208C280.4 13.0596 280.458 12.9185 280.553 12.7976C280.592 12.9387 280.611 13.0999 280.611 13.2611C280.611 13.6239 280.496 13.9665 280.304 14.2486H279.883V14.2285ZM277.985 14.43H280.151C279.863 14.7122 279.499 14.8936 279.078 14.8936C278.656 14.8734 278.273 14.7122 277.985 14.43ZM277.525 13.241C277.525 13.1805 277.525 13.0999 277.544 13.0394C277.698 13.1805 277.755 13.382 277.832 13.5836C277.889 13.7045 277.947 14.0673 278.043 14.1277C278.1 14.1882 278.273 14.168 278.369 14.168C278.56 14.168 278.752 14.2083 278.943 14.2285H277.851C277.64 13.9463 277.525 13.6239 277.525 13.241ZM277.372 14.2285C277.429 14.2083 277.468 14.2083 277.525 14.168C277.468 14.0471 277.429 13.9262 277.391 13.7851C277.429 13.9463 277.506 14.0874 277.583 14.2083H277.372V14.2285ZM277.276 12.7976H277.314C277.295 12.8177 277.295 12.858 277.295 12.8983C277.314 12.8983 277.334 12.9185 277.353 12.9185C277.334 13.0193 277.314 13.1402 277.314 13.241C277.314 13.4425 277.334 13.6239 277.391 13.7851C277.353 13.6843 277.334 13.5634 277.295 13.4425C277.257 13.2611 277.238 12.9991 277.276 12.7976ZM275.59 5.13919H274.267V3.20443H275.59V5.13919ZM276.356 4.9175H275.839V3.3052H276.356V4.9175ZM275.264 11.3062H276.279C276.26 11.4876 276.26 11.6488 276.26 11.8101C276.145 11.7899 276.011 11.669 275.896 11.6287C275.762 11.5884 275.628 11.6085 275.494 11.5884C275.34 11.5682 275.283 11.4473 275.264 11.3062ZM273.156 5.54226H275.187V7.21501H273.156V5.54226ZM272.676 3.20443H273.999V5.13919H272.676V3.20443ZM271.603 11.3062H272.427C272.408 11.4473 272.37 11.5682 272.255 11.5884C272.159 11.6085 272.044 11.5884 271.929 11.6287C271.833 11.669 271.737 11.7697 271.622 11.8101C271.622 11.6488 271.622 11.4876 271.603 11.3062ZM268.249 13.241C268.249 13.1805 268.249 13.12 268.249 13.0596C268.268 13.0999 268.288 13.1603 268.288 13.2007C268.364 13.4828 268.422 13.9463 268.594 14.1479C268.728 14.3091 268.997 14.2486 269.169 14.2486C269.418 14.2285 269.667 14.1882 269.917 14.168C269.993 14.168 270.127 14.1882 270.185 14.1277C270.262 14.0471 270.319 13.7045 270.357 13.5836C270.415 13.382 270.472 13.1402 270.607 13.0193C270.76 12.8782 271.028 12.7976 271.22 12.8177C271.239 12.8177 271.277 12.8177 271.296 12.8177C271.335 12.9588 271.354 13.0999 271.354 13.2611C271.354 14.168 270.664 14.8936 269.802 14.8936C268.958 14.8734 268.249 14.1479 268.249 13.241ZM267.31 11.5682C267.329 11.5481 267.329 11.5481 267.348 11.5279C267.502 11.5279 267.636 11.5077 267.77 11.5077C267.77 11.4473 267.77 11.3868 267.751 11.3264H270.626C270.626 11.4271 270.645 11.5077 270.626 11.6085C270.626 11.6085 270.626 11.6085 270.607 11.6085C270.434 11.5077 270.223 11.4473 270.012 11.4271C269.993 11.4271 269.993 11.407 269.974 11.407C269.859 11.3667 269.706 11.407 269.591 11.4271C269.476 11.4271 269.361 11.3667 269.303 11.4876C269.246 11.5077 269.169 11.5279 269.112 11.5682C269.016 11.5682 268.92 11.5682 268.824 11.5884C268.747 11.5884 268.633 11.5682 268.575 11.6287C268.518 11.6891 268.479 11.8504 268.422 11.931C268.307 12.072 267.981 12.2333 267.828 12.1728C267.751 12.1325 267.693 12.0317 267.617 11.9914C267.559 11.9511 267.483 11.931 267.406 11.931C267.003 11.9108 267.042 12.5557 267.099 12.9185V12.9387C267.042 12.717 266.965 12.455 266.965 12.2333C266.965 12.072 267.061 11.9511 267.138 11.8302C267.214 11.7093 267.272 11.6488 267.31 11.5682ZM263.879 0.927069H268.997V3.14397H263.879V0.927069ZM247.455 14.0673H247.838V14.289H247.455V14.0673ZM247.455 11.4271H247.838V13.8456H247.455V11.4271ZM245.097 11.8907C245.04 11.8101 245.002 11.6488 244.944 11.5884C244.887 11.5279 244.772 11.5481 244.695 11.5481C244.599 11.5481 244.503 11.5481 244.407 11.5279C244.35 11.5077 244.273 11.4674 244.216 11.4473C244.158 11.3264 244.043 11.3868 243.928 11.3868C243.813 11.3868 243.66 11.3465 243.545 11.3667C243.526 11.3667 243.526 11.3868 243.507 11.3868C243.296 11.407 243.104 11.4876 242.913 11.5682C242.913 11.5682 242.913 11.5682 242.893 11.5682C242.874 11.4674 242.893 11.3667 242.893 11.2659H244.848V11.407H246.171H246.152C246.132 11.4674 246.171 11.5077 246.209 11.5481C246.247 11.6287 246.286 11.6891 246.343 11.7697C246.439 11.8907 246.516 12.0116 246.516 12.1728C246.516 12.3945 246.458 12.6565 246.381 12.8782V12.858C246.42 12.4953 246.458 11.8504 246.075 11.8705C245.998 11.8705 245.922 11.8907 245.864 11.931C245.787 11.9713 245.73 12.0922 245.653 12.1124C245.538 12.193 245.212 12.0317 245.097 11.8907ZM242.184 13.241C242.184 13.0999 242.203 12.9387 242.242 12.7976C242.261 12.7976 242.299 12.7976 242.318 12.7976C242.51 12.7774 242.778 12.858 242.932 12.9991C243.066 13.1402 243.123 13.3619 243.181 13.5634C243.219 13.6843 243.277 14.0471 243.353 14.1076C243.411 14.168 243.545 14.1479 243.622 14.1479C243.871 14.168 244.12 14.2285 244.369 14.2285C244.542 14.2285 244.81 14.289 244.944 14.1277C245.117 13.9262 245.155 13.4627 245.251 13.1805C245.27 13.12 245.289 13.0797 245.289 13.0394C245.289 13.0999 245.289 13.1603 245.289 13.2208C245.289 14.1277 244.599 14.8533 243.737 14.8533C242.874 14.8734 242.184 14.1479 242.184 13.241ZM241.111 11.2861H241.935C241.916 11.4674 241.916 11.6488 241.916 11.8101C241.82 11.7899 241.724 11.669 241.609 11.6287C241.513 11.5884 241.398 11.6085 241.283 11.5884C241.169 11.5682 241.13 11.4271 241.111 11.2861ZM237.278 11.2861H238.294C238.275 11.4271 238.217 11.5682 238.064 11.6085C237.93 11.6287 237.795 11.6085 237.661 11.6488C237.527 11.6891 237.412 11.7899 237.297 11.8302C237.297 11.6488 237.278 11.4674 237.278 11.2861ZM236.262 13.4425C236.243 13.5634 236.205 13.6843 236.166 13.7851C236.224 13.6037 236.243 13.4223 236.243 13.241C236.243 13.12 236.224 13.0193 236.205 12.9185C236.224 12.9185 236.243 12.8983 236.262 12.8983C236.262 12.858 236.243 12.8379 236.243 12.7976H236.281C236.32 12.9991 236.3 13.2611 236.262 13.4425ZM235.975 14.2285C236.051 14.0874 236.128 13.9463 236.166 13.8053C236.128 13.9262 236.09 14.0471 236.032 14.1882C236.071 14.2083 236.128 14.2285 236.186 14.2486H235.975V14.2285ZM234.633 14.2285C234.825 14.2083 235.016 14.1882 235.208 14.168C235.304 14.168 235.457 14.1882 235.534 14.1277C235.63 14.0471 235.687 13.7045 235.745 13.5836C235.821 13.4022 235.879 13.1805 236.032 13.0394C236.032 13.0999 236.051 13.1805 236.051 13.241C236.051 13.6037 235.936 13.9463 235.745 14.2285H234.633ZM233.387 14.43H235.553C235.266 14.7122 234.901 14.8936 234.48 14.8936C234.058 14.8734 233.675 14.7122 233.387 14.43ZM232.927 13.241C232.927 13.0797 232.947 12.9387 232.985 12.7774C233.062 12.8983 233.138 13.0394 233.196 13.2007C233.292 13.4828 233.368 13.9463 233.56 14.1479C233.598 14.168 233.617 14.1882 233.656 14.2083H233.234C233.042 13.9463 232.927 13.6239 232.927 13.241ZM232.391 14.2285C232.41 14.0673 232.372 13.8456 232.372 13.7851C232.448 13.8053 232.544 13.8657 232.64 13.8657C232.602 13.7247 232.64 13.5231 232.64 13.3619C232.64 13.0797 232.602 12.7774 232.621 12.5154C232.697 12.5356 232.774 12.5759 232.832 12.6364C232.755 12.8379 232.717 13.0394 232.717 13.2813C232.717 13.644 232.812 13.9866 232.985 14.2688H232.391V14.2285ZM230.762 12.2131L231.567 11.2861H236.051C236.051 11.3868 236.07 11.4876 236.051 11.5884C235.898 11.6287 235.802 11.6891 235.63 11.6287C235.476 11.5682 235.419 11.4271 235.266 11.3868C235.112 11.3465 234.94 11.3868 234.786 11.407C234.71 11.407 234.614 11.3868 234.556 11.407C234.537 11.407 234.499 11.407 234.48 11.407C234.231 11.407 233.981 11.4674 233.771 11.5682C233.694 11.5682 233.598 11.5682 233.541 11.6085C233.502 11.6488 233.464 11.7093 233.445 11.7697C233.33 11.8504 233.234 11.9511 233.157 12.0519C232.985 12.1325 232.755 12.193 232.621 12.1527C232.525 12.1124 232.448 12.0116 232.372 11.9713C232.295 11.931 232.199 11.9108 232.103 11.9108C231.605 11.8907 231.662 12.5356 231.72 12.8983C231.758 13.2007 231.835 13.5231 231.892 13.8053C231.931 13.9866 232.027 14.289 232.18 14.3897V14.4502H232.851C232.812 14.4905 232.755 14.551 232.717 14.5711C232.64 14.6114 232.544 14.5913 232.448 14.5711C232.41 14.5711 232.372 14.5711 232.333 14.551H232.314C232.065 14.5308 231.988 14.5308 231.892 14.289C231.854 14.1882 231.835 14.0673 231.835 13.9463C231.816 13.7851 231.797 13.6037 231.701 13.4425C231.547 13.1805 231.26 13.0797 230.992 12.979C230.915 12.9387 230.819 12.9185 230.743 12.8782V12.2131H230.762Z" fill="#FFCA62"/>
</svg>
