<svg width="136" height="136" viewBox="0 0 136 136" fill="none" xmlns="http://www.w3.org/2000/svg">
<path fill-rule="evenodd" clip-rule="evenodd" d="M68.0001 135.097C105.213 135.097 135.381 104.93 135.381 67.7168C135.381 30.5035 105.213 0.336304 68.0001 0.336304C30.7868 0.336304 0.619507 30.5035 0.619507 67.7168C0.619507 104.93 30.7868 135.097 68.0001 135.097ZM72.512 31.7806H63.5336C62.9578 31.9211 62.389 32.0616 61.8203 32.2021C61.2527 32.3423 60.6851 32.4824 60.1106 32.6226C53.5171 34.0819 47.8214 37.1689 42.9955 41.8837C37.7769 46.9352 34.3538 52.969 32.8948 60.0692C31.2956 67.7869 31.9689 75.2799 35.2236 82.4924C38.7308 90.238 44.3143 96.0193 51.8336 99.864C56.9401 102.474 62.4113 103.681 68.1631 103.653C76.2437 103.625 83.5105 101.211 89.8796 96.2999C97.2026 90.6591 101.776 83.2782 103.431 74.1293C103.506 73.6804 103.631 73.2565 103.755 72.8325C103.818 72.6204 103.88 72.4082 103.936 72.1929V63.2124C103.656 62.0618 103.375 60.9392 103.123 59.7886C101.664 53.1935 98.5493 47.5245 93.8637 42.6696C88.7292 37.3934 82.5846 33.9977 75.4019 32.4542C74.4199 32.2577 73.4659 32.0051 72.512 31.7806ZM51.2164 51.4255C50.1502 56.1122 49.3926 60.9392 49.3365 66.0469H35.1395C35.5042 59.1992 37.7488 53.1935 41.733 47.8052C44.8754 49.012 47.9617 50.1907 51.2164 51.4255ZM94.2845 47.8333C98.2968 53.1094 100.513 59.1711 100.934 66.0469H86.7371C86.5968 61.0795 85.9796 56.1964 84.8011 51.4816C87.9716 50.2749 91.0299 49.0962 94.2845 47.8333ZM41.761 87.572C37.7488 82.324 35.5042 76.2622 35.1114 69.3303H49.2804C49.4487 74.3258 50.0099 79.2089 51.2444 83.9237C48.074 85.1305 45.0157 86.3091 41.761 87.572ZM94.3126 87.572C91.1141 86.3372 88.0278 85.1584 84.9134 83.9799C85.054 83.146 85.209 82.3013 85.3655 81.4484C85.6462 79.9188 85.9318 78.3629 86.1479 76.7954C86.3793 74.9646 86.5319 73.1337 86.6884 71.2554C86.7406 70.6289 86.7932 69.9972 86.8494 69.3584H100.906C100.569 76.2061 98.2968 82.2399 94.3126 87.572ZM66.2832 53.5583C66.5358 54.5406 66.5919 64.5314 66.2832 66.0469C61.7098 66.0469 57.1085 66.0469 52.3387 66.075C52.4789 61.3041 53.0401 56.6454 54.2466 52.1832C56.6459 52.4462 58.9972 52.7189 61.3342 52.9899C62.987 53.1815 64.6327 53.3723 66.2832 53.5583ZM75.6833 82.5222C73.6652 82.2902 71.6472 82.058 69.6221 81.8188V69.5549C70.6041 69.2181 81.4623 69.1058 83.5667 69.3865C84.0156 71.6316 82.7249 81.0612 81.7148 83.222C79.6996 82.9841 77.6915 82.7532 75.6833 82.5222ZM81.799 52.2113C83.0335 56.5892 83.5667 61.2479 83.735 66.075C78.9933 66.075 74.3918 66.075 69.6782 66.103V53.5864C71.0201 53.4341 72.3686 53.2817 73.7267 53.1284C76.3724 52.8296 79.0551 52.5265 81.799 52.2113ZM54.2466 83.194C53.0121 78.816 52.507 74.1573 52.3106 69.3303H66.3674V81.8469C62.4113 82.2679 58.4271 82.7169 54.2466 83.194ZM69.8185 50.303C69.5098 49.1243 69.4818 36.5234 69.7904 35.0081C71.2775 35.3447 72.4559 36.0745 73.522 36.9725C75.0372 38.1792 76.2156 39.6947 77.2537 41.2943C78.8249 43.6798 79.9753 46.2617 80.8731 49.0962C77.1695 49.8258 73.522 50.303 69.8185 50.303ZM66.2271 85.0743C66.5358 86.3091 66.5638 98.938 66.2552 100.397C64.7681 100.061 63.5897 99.3308 62.4955 98.4608C60.9803 97.2542 59.8581 95.7106 58.7639 94.139C57.7538 92.6516 55.6775 88.4701 55.2286 86.3091C58.876 85.5514 62.5236 85.1305 66.2271 85.0743ZM66.171 34.98C66.5358 36.0464 66.6479 47.8894 66.3394 50.303C62.5516 50.2749 58.9322 49.8539 55.2847 49.0681C55.3408 48.7313 55.3127 48.5068 55.3969 48.2823C56.6876 44.6901 58.371 41.3224 60.8962 38.4598C62.0185 37.197 63.3091 36.1306 64.8804 35.457C65.2496 35.2848 65.6403 35.1555 66.0149 35.0317L66.171 34.98ZM69.8746 100.425C69.5098 99.3589 69.3696 87.5439 69.7062 85.1024C73.494 85.1305 77.1134 85.5514 80.7328 86.3091C80.6767 86.702 80.6767 86.9827 80.5925 87.2352C79.33 90.6871 77.7307 93.9425 75.3177 96.7209C74.1674 98.068 72.8206 99.2186 71.1652 99.9482C70.7444 100.145 70.2955 100.285 69.8746 100.425ZM43.9214 45.2234C48.0739 40.9015 52.7876 37.8705 58.4552 36.3551C55.5092 39.9473 53.6573 44.0447 52.1142 48.3385C49.2804 47.5526 46.6149 46.6826 43.9214 45.2234ZM77.4501 36.4393C80.8731 36.4954 88.8975 41.3224 92.04 45.2794C89.4306 46.6826 86.7932 47.6368 83.9314 48.3665C82.3882 44.0447 80.5364 39.9192 77.4501 36.4393ZM58.5113 99.0502C52.7876 97.5629 48.1301 94.4758 43.8934 90.182C46.6149 88.7227 49.2524 87.7965 52.1423 87.0388C53.6854 91.3606 55.5372 95.4861 58.5113 99.0502ZM83.9033 87.095C86.7371 87.7684 89.3745 88.7507 92.1802 90.1539C87.9436 94.5038 83.258 97.5629 77.5623 99.0782C80.4803 95.5142 82.3882 91.4448 83.9033 87.095Z" fill="white"/>
</svg>
