<svg width="136" height="136" viewBox="0 0 136 136" fill="none" xmlns="http://www.w3.org/2000/svg">
<path fill-rule="evenodd" clip-rule="evenodd" d="M67.7168 135.097C104.93 135.097 135.097 104.93 135.097 67.7168C135.097 30.5035 104.93 0.336304 67.7168 0.336304C30.5036 0.336304 0.336304 30.5035 0.336304 67.7168C0.336304 104.93 30.5036 135.097 67.7168 135.097ZM34.0266 37.3956V97.7012H101.126V50.7032H67.4922V37.3956H34.0266ZM94.3321 57.6659V91.0754C85.4042 91.0754 76.7009 91.0754 67.8291 91.1316V84.5059H74.1741V77.824H67.773V71.0298H74.118V64.2356H67.7168V57.6659H94.3321ZM40.8207 50.5348V44.1337H47.2219V50.5348H40.8207ZM60.698 50.5348H54.1846V44.1898H60.698V50.5348ZM47.1657 64.0671H40.7646V57.6659H47.1657V64.0671ZM60.698 63.9548H54.1846V57.6097H60.698V63.9548ZM40.7646 71.1421H47.278V77.4871H40.7646V71.1421ZM54.2968 77.5432V71.0298H60.6418V77.5432H54.2968ZM47.2219 90.907H40.7085V84.6182H47.2219V90.907ZM60.6418 84.6182V91.1316H54.2968V84.6182H60.6418ZM87.6502 64.3479V70.749H81.1929V64.3479H87.6502ZM87.7064 84.2251V77.9363H81.1929V84.2251H87.7064Z" fill="white"/>
</svg>
