<svg width="24" height="19" viewBox="0 0 24 19" fill="none" xmlns="http://www.w3.org/2000/svg">
<path d="M24 5.05721C23.7201 5.32164 23.4402 5.58607 23.1683 5.85852C22.8964 6.13096 22.6405 6.41944 22.3525 6.73195C19.4335 3.90332 16.0027 2.41289 11.988 2.41289C7.98934 2.41289 4.57448 3.90332 1.73542 6.65182C1.16761 6.0909 0.623792 5.54601 0 4.92099C0.863712 4.24789 1.70343 3.48664 2.63912 2.86162C9.3009 -1.56161 17.89 -0.792353 23.6961 4.72066C23.7921 4.8088 23.896 4.88893 24 4.96906C24 5.00112 24 5.02516 24 5.05721Z" fill="#E5E5E5"/>
<path d="M11.6041 18.9998C11.5001 18.9517 11.3961 18.8956 11.2842 18.8476C10.4365 18.487 9.96461 17.5975 10.1406 16.692C10.3165 15.7946 11.1082 15.1455 12.0279 15.1455C12.9396 15.1535 13.7314 15.8106 13.8993 16.7081C14.0672 17.6055 13.5794 18.495 12.7237 18.8476C12.6117 18.8956 12.5078 18.9437 12.3958 18.9918C12.1319 18.9998 11.868 18.9998 11.6041 18.9998Z" fill="#E5E5E5"/>
<path d="M5.11028 10.0414C4.54247 9.48046 3.99865 8.94359 3.45483 8.39869C7.58946 3.91136 15.6108 3.31839 20.5371 8.35062C19.9853 8.89551 19.4255 9.4404 18.8577 10.0013C16.9863 8.20638 14.6911 7.19673 11.988 7.20474C9.29289 7.21276 7.00565 8.21439 5.11028 10.0414Z" fill="#E5E5E5"/>
<path d="M17.2023 11.7721C16.6344 12.333 16.0906 12.8779 15.5468 13.4148C13.4115 11.3955 10.3325 11.6118 8.48516 13.4068C7.94134 12.8619 7.39752 12.325 6.8457 11.7801C9.03697 9.20791 14.0673 8.55885 17.2023 11.7721Z" fill="#E5E5E5"/>
</svg>
