<svg width="20" height="20" viewBox="0 0 20 20" fill="none" xmlns="http://www.w3.org/2000/svg">
<path d="M6.28462 17.353C6.15402 17.3571 6.07239 17.3041 6.00097 17.2329C5.4908 16.734 4.97655 16.2392 4.47047 15.7383C3.89908 15.1722 3.33586 14.596 2.76039 14.034C2.63183 13.9077 2.59918 13.7754 2.65019 13.6268C2.76243 13.2908 2.87467 12.9507 3.01547 12.6249C3.92153 10.5175 5.18062 8.63397 6.6948 6.91745C8.10082 5.3231 9.69662 3.94663 11.4924 2.80839C12.1291 2.40522 12.7944 2.05092 13.4453 1.67218C13.5127 1.63349 13.5412 1.66811 13.5821 1.7068C14.2187 2.34209 14.8575 2.97739 15.4942 3.61472C16.4267 4.54527 17.3593 5.47785 18.294 6.40636C18.3531 6.46541 18.3572 6.5041 18.3205 6.5774C17.5246 8.1351 16.5594 9.57877 15.4207 10.9064C14.7003 11.7453 13.9188 12.5252 13.0964 13.2643C11.2108 14.9584 9.09666 16.2962 6.72949 17.2227C6.60705 17.2716 6.48053 17.3103 6.35401 17.351C6.3234 17.353 6.29074 17.351 6.28462 17.353ZM7.63146 11.1222C7.56412 11.8634 8.25183 12.3765 8.85587 12.3724C9.53541 12.3663 10.1027 11.8064 10.1007 11.1243C10.0986 10.5521 9.7007 9.88013 8.75791 9.89439C8.14775 9.90457 7.63146 10.4584 7.63146 11.1222ZM12.3944 8.8152C13.1127 8.89054 13.6474 8.16565 13.6412 7.59754C13.6372 7.01723 13.129 6.34731 12.3597 6.35342C11.7455 6.35749 11.1292 6.91745 11.1557 7.60773C11.1822 8.31633 11.674 8.8152 12.3944 8.8152Z" fill="#E5E5E5"/>
<path d="M18.7653 5.61827C17.2981 4.17256 15.8288 2.72686 14.3452 1.26486C14.6289 1.15287 14.8942 1.04291 15.1635 0.941104C16.1492 0.564406 17.1613 0.29359 18.2 0.13273C18.6184 0.0675711 19.0428 0.0248108 19.4673 0.00241249C19.8836 -0.0199858 20.0019 0.110331 19.9999 0.52979C19.9958 1.24246 19.8713 1.93885 19.7183 2.63319C19.4918 3.6574 19.1734 4.65515 18.7571 5.61827C18.751 5.63049 18.7449 5.64271 18.7388 5.65289C18.7469 5.64067 18.7571 5.62845 18.7653 5.61827Z" fill="#E5E5E5"/>
<path d="M6.97031 5.98269C6.92949 6.03156 6.89276 6.08247 6.84787 6.12726C5.62551 7.39989 4.58885 8.80895 3.70728 10.3341C3.3971 10.8716 3.11957 11.4255 2.83183 11.9752C2.78694 12.0608 2.74408 12.0811 2.65021 12.0547C1.8666 11.8307 1.08298 11.6148 0.299363 11.3929C0.050401 11.3216 -0.0618358 11.0834 0.0340756 10.839C0.0646856 10.7617 0.10754 10.6863 0.152434 10.6151C1.18705 9.00239 2.54002 7.72772 4.24602 6.84604C5.06432 6.42251 5.92753 6.12319 6.83766 5.96029C6.87644 5.95419 6.91521 5.95418 6.95398 5.95215C6.9601 5.96233 6.96419 5.97251 6.97031 5.98269Z" fill="#E5E5E5"/>
<path d="M7.90088 17.188C9.01917 16.6504 10.0946 16.0457 11.117 15.3452C12.1373 14.6468 13.0883 13.8608 13.9984 13.0239C14.0106 13.0321 14.0249 13.0402 14.0372 13.0484C14.029 13.1156 14.0229 13.1828 14.0106 13.2499C13.7066 14.8484 12.9944 16.2513 11.9741 17.5056C11.2292 18.4219 10.3538 19.1936 9.34975 19.8187C9.27017 19.8697 9.1865 19.9165 9.09875 19.9511C8.92121 20.0203 8.7498 19.9613 8.67225 19.7882C8.59471 19.6151 8.5294 19.4359 8.47635 19.2547C8.28248 18.5807 8.09474 17.9047 7.90496 17.2307C7.90292 17.2226 7.90292 17.2124 7.90088 17.188Z" fill="#E5E5E5"/>
<path d="M5.23356 17.701C5.09683 17.8049 4.96419 17.923 4.81522 18.0146C4.23159 18.3771 3.60919 18.6682 2.97046 18.9167C2.04808 19.2771 1.11753 19.613 0.189026 19.9592C0.146172 19.9755 0.0992369 19.9836 0.0339355 19.9999C0.10944 19.782 0.174742 19.5845 0.246165 19.3891C0.672665 18.2162 1.10325 17.0434 1.65627 15.9214C1.83381 15.563 2.01747 15.2067 2.28887 14.9053C2.31336 14.8789 2.33989 14.8524 2.35826 14.832C3.31125 15.785 4.2622 16.7318 5.23356 17.701Z" fill="#E5E5E5"/>
</svg>